<?xml version="1.0" encoding="UTF-8" standalone="no"?>
<!-- Created with Inkscape (http://www.inkscape.org/) -->
<svg
   xmlns:svg="http://www.w3.org/2000/svg"
   xmlns="http://www.w3.org/2000/svg"
   version="1.0"
   width="602.36218"
   height="202.0748"
   id="svg4080">
  <defs
     id="defs4082" />
  <g
     transform="translate(-189.91405,-217.39454)"
     id="layer1">
    <g
       transform="matrix(1.2744694,0,0,1.2744694,-34.409076,-87.691372)"
       id="g4111">
      <path
         d="M 189.91406,253.28334 L 335.06807,253.28334 L 335.06807,384.03846 L 189.91406,384.03846 L 189.91406,253.28334 z"
         id="path199"
         style="fill:#ff6600;fill-opacity:1;fill-rule:nonzero;stroke:none" />
      <path
         d="M 320.42345,253.28294 L 320.42345,384.03846 L 353.75329,384.03846 L 353.75329,312.25111 C 357.65032,318.40431 362.61341,325.1113 368.11076,332.24902 C 381.68882,349.9087 396.23105,367.05579 410.6704,384.03846 L 438.87257,384.03846 L 438.87257,253.28294 L 405.02996,253.28294 L 405.02996,323.01921 C 395.71812,307.75928 383.57548,292.72479 372.21289,278.92127 C 365.15722,270.34781 357.79373,261.7947 350.67669,253.28294 L 320.42345,253.28294 z M 497.32798,272.76807 C 481.04251,273.03471 465.74171,277.28042 453.74281,288.66384 L 465.53644,306.09791 C 472.40752,301.2779 481.4729,295.51441 490.14925,295.32981 C 493.55402,295.45287 496.05599,296.47841 497.84075,298.40641 C 499.70722,300.41646 500.36389,302.32378 500.40458,304.55961 C 500.19947,315.63537 490.0672,328.14672 482.97051,335.83838 C 477.67876,341.60188 471.93577,347.54998 465.53644,353.27245 L 450.15344,367.11716 L 450.66621,384.03846 L 538.86209,384.03846 L 538.86209,358.91289 L 498.86628,358.91289 L 511.68545,346.09372 C 522.88427,334.5257 538.1644,318.91692 537.83655,301.48301 C 537.38532,279.94681 515.6235,272.68619 497.32798,272.76807 z M 587.06216,274.30637 L 538.34932,335.32562 L 538.34932,351.22139 L 587.57493,351.22139 L 587.57493,384.03846 L 621.9303,384.03846 L 621.9303,351.22139 L 634.74947,351.22139 L 634.74947,330.71072 L 621.9303,330.71072 L 621.9303,274.30637 L 587.06216,274.30637 z M 587.57493,301.48301 L 587.57493,330.71072 L 565.52596,330.71072 L 587.57493,301.48301 z"
         id="path201"
         style="fill:#000032;fill-opacity:1;fill-rule:nonzero;stroke:none" />
    </g>
  </g>
</svg>
